<svg width="12" height="14" viewBox="0 0 12 14" fill="none" xmlns="http://www.w3.org/2000/svg">
<path fill-rule="evenodd" clip-rule="evenodd" d="M6.58396 3.50904C6.26163 3.18671 5.73904 3.18671 5.41671 3.50904C5.09438 3.83137 5.09438 4.35397 5.41671 4.67629C5.73904 4.99862 6.26163 4.99862 6.58396 4.67629C6.90629 4.35397 6.90629 3.83137 6.58396 3.50904ZM4.81976 2.9121C5.47177 2.26008 6.52889 2.26008 7.18091 2.9121C7.83292 3.56411 7.83292 4.62123 7.18091 5.27324C6.52889 5.92525 5.47177 5.92525 4.81976 5.27324C4.16775 4.62123 4.16775 3.56411 4.81976 2.9121Z" fill="#FFFFFF"/>
<path fill-rule="evenodd" clip-rule="evenodd" d="M4.2504 7.43422C3.78155 7.67684 3.6042 7.95556 3.6042 8.1962V8.41454C3.7845 8.46259 3.91732 8.627 3.91732 8.82244C3.91732 9.05556 3.72834 9.24454 3.49522 9.24454C3.08925 9.24454 2.75999 8.91528 2.75999 8.50932V8.1962C2.75999 7.48933 3.27871 6.9865 3.86242 6.68445C4.45998 6.37522 5.23372 6.21099 6.00019 6.21099C6.76669 6.21099 7.54044 6.37531 8.13799 6.68458C8.72163 6.98664 9.24039 7.48946 9.24039 8.1962V8.50932C9.24039 8.91528 8.91113 9.24454 8.50516 9.24454C8.27204 9.24454 8.08306 9.05556 8.08306 8.82244C8.08306 8.627 8.21588 8.46259 8.39618 8.41454V8.1962C8.39618 7.95574 8.21886 7.67701 7.74995 7.43432C7.29494 7.19883 6.65964 7.0552 6.00019 7.0552C5.3407 7.0552 4.7054 7.19876 4.2504 7.43422Z" fill="#FFFFFF"/>
<path fill-rule="evenodd" clip-rule="evenodd" d="M6.00018 8.90636C4.68805 8.90636 3.62436 9.97005 3.62436 11.2822C3.62436 12.5943 4.68805 13.658 6.00018 13.658C7.31231 13.658 8.376 12.5943 8.376 11.2822C8.376 9.97005 7.31231 8.90636 6.00018 8.90636ZM4.92449 12.7987H5.96711C6.26582 12.7987 6.52241 12.7398 6.73687 12.622C6.95229 12.5043 7.11744 12.3353 7.23233 12.1151C7.34818 11.8949 7.4061 11.6316 7.4061 11.3252C7.4061 11.0198 7.34818 10.7575 7.23233 10.5382C7.11744 10.319 6.95325 10.151 6.73974 10.0342C6.52624 9.91639 6.27157 9.85751 5.97573 9.85751H4.92449V12.7987ZM5.54633 12.2659H5.94126C6.12508 12.2659 6.27971 12.2333 6.40513 12.1682C6.53151 12.1022 6.62629 12.0002 6.68948 11.8623C6.75362 11.7235 6.7857 11.5445 6.7857 11.3252C6.7857 11.1079 6.75362 10.9303 6.68948 10.7924C6.62629 10.6546 6.53198 10.5531 6.40656 10.488C6.28114 10.4229 6.12652 10.3903 5.9427 10.3903H5.54633V12.2659Z" fill="#FFFFFF"/>
<path fill-rule="evenodd" clip-rule="evenodd" d="M1.02134 5.00585C1.75811 2.25618 4.58443 0.624399 7.3341 1.36117C8.27414 1.61305 9.08302 2.10868 9.7116 2.76212L9.2836 2.68128C9.05453 2.63802 8.83376 2.78865 8.79049 3.01772C8.74723 3.2468 8.89786 3.46757 9.12693 3.51083L10.5292 3.77565C10.6463 3.79777 10.7673 3.76933 10.8623 3.69736C10.9574 3.62538 11.0175 3.51658 11.028 3.39782L11.1575 1.92377C11.1779 1.69154 11.0062 1.48674 10.7739 1.46634C10.5417 1.44593 10.3369 1.61765 10.3165 1.84988L10.2905 2.14639C9.56295 1.40076 8.63147 0.83481 7.5526 0.545728C4.35257 -0.311716 1.06334 1.58732 0.205898 4.78735C-0.61212 7.84023 1.0785 10.9739 4.01438 12.0005C4.23444 12.0775 4.47521 11.9615 4.55216 11.7414C4.62911 11.5214 4.5131 11.2806 4.29304 11.2036C1.77109 10.3218 0.318539 7.62874 1.02134 5.00585ZM10.2905 2.14639L10.2278 2.85961L9.7116 2.76212C9.88769 2.94517 10.0496 3.1406 10.1963 3.34654C10.3316 3.5364 10.5952 3.58066 10.785 3.4454C10.9749 3.31014 11.0192 3.04657 10.8839 2.8567C10.7051 2.60574 10.5068 2.36812 10.2905 2.14639ZM11.7876 4.75936C11.726 4.53453 11.4938 4.40221 11.2689 4.46382C11.0441 4.52543 10.9118 4.75764 10.9734 4.98248C11.2069 5.83449 11.2242 6.75784 10.9788 7.67393C10.5339 9.33438 9.32736 10.5873 7.83399 11.1574C7.61619 11.2405 7.50703 11.4845 7.59016 11.7023C7.6733 11.9201 7.91725 12.0292 8.13504 11.9461C9.87053 11.2836 11.2763 9.82549 11.7942 7.89243C12.0795 6.82775 12.0596 5.75193 11.7876 4.75936Z" fill="#FFFFFF"/>
<path d="M10.785 3.4454C10.9749 3.31014 11.0192 3.04657 10.8839 2.8567C10.7051 2.60574 10.5068 2.36812 10.2905 2.14639L10.2278 2.85961L9.7116 2.76212C9.88769 2.94517 10.0496 3.1406 10.1963 3.34654C10.3316 3.5364 10.5952 3.58066 10.785 3.4454Z" fill="#FFFFFF"/>
</svg>
