<svg width="14" height="16" viewBox="0 0 14 16" fill="none" xmlns="http://www.w3.org/2000/svg">
<path fill-rule="evenodd" clip-rule="evenodd" d="M3.28564 1.81641C3.28564 1.26412 3.73336 0.816406 4.28564 0.816406H10.0384C10.3053 0.816406 10.5612 0.923144 10.749 1.11285L13.208 3.59658C13.3933 3.78382 13.4973 4.03665 13.4973 4.30013V11.9287C13.4973 12.481 13.0496 12.9287 12.4973 12.9287H10.2469V11.9287H12.4973V4.30013L10.0384 1.81641L4.28564 1.81641V3.53993H3.28564V1.81641Z" fill="#2E3032"/>
<path fill-rule="evenodd" clip-rule="evenodd" d="M8.68823 8.1959C8.68823 7.91976 8.46438 7.6959 8.18823 7.6959L3.02915 7.6959C2.75301 7.6959 2.52915 7.91976 2.52915 8.1959C2.52915 8.47204 2.75301 8.6959 3.02915 8.6959L8.18823 8.6959C8.46438 8.6959 8.68823 8.47204 8.68823 8.1959Z" fill="#2E3032"/>
<path fill-rule="evenodd" clip-rule="evenodd" d="M8.68823 10.2893C8.68823 10.0131 8.46438 9.78928 8.18823 9.78928H3.02915C2.75301 9.78928 2.52915 10.0131 2.52915 10.2893C2.52915 10.5654 2.75301 10.7893 3.02915 10.7893H8.18823C8.46438 10.7893 8.68823 10.5654 8.68823 10.2893Z" fill="#2E3032"/>
<path fill-rule="evenodd" clip-rule="evenodd" d="M5.69458 12.3827C5.69458 12.1066 5.47072 11.8827 5.19458 11.8827H3.02915C2.75301 11.8827 2.52915 12.1066 2.52915 12.3827C2.52915 12.6589 2.75301 12.8827 3.02915 12.8827H5.19458C5.47072 12.8827 5.69458 12.6589 5.69458 12.3827Z" fill="#2E3032"/>
<path fill-rule="evenodd" clip-rule="evenodd" d="M0.50293 4.07373C0.50293 3.52145 0.950645 3.07373 1.50293 3.07373H7.25565C7.5226 3.07373 7.77848 3.18047 7.96629 3.37018L10.4252 5.8539C10.6106 6.04114 10.7146 6.29397 10.7146 6.55745V14.1861C10.7146 14.7384 10.2669 15.1861 9.7146 15.1861H1.50293C0.950645 15.1861 0.50293 14.7383 0.50293 14.1861V4.07373ZM1.50293 4.07373V14.1861H9.7146V6.55745L7.25565 4.07373L1.50293 4.07373Z" fill="#2E3032"/>
<path fill-rule="evenodd" clip-rule="evenodd" d="M7.40283 3.71545C7.67897 3.71545 7.90283 3.93931 7.90283 4.21545V5.89062H9.38009C9.65623 5.89062 9.88009 6.11448 9.88009 6.39062C9.88009 6.66677 9.65623 6.89062 9.38009 6.89062H7.40283C7.12669 6.89062 6.90283 6.66677 6.90283 6.39062V4.21545C6.90283 3.93931 7.12669 3.71545 7.40283 3.71545Z" fill="#2E3032"/>
<path fill-rule="evenodd" clip-rule="evenodd" d="M10.2146 1.54028C10.4907 1.54028 10.7146 1.76414 10.7146 2.04028V3.71545H12.1919C12.468 3.71545 12.6919 3.93931 12.6919 4.21545C12.6919 4.4916 12.468 4.71545 12.1919 4.71545H10.2146C9.93846 4.71545 9.7146 4.4916 9.7146 4.21545V2.04028C9.7146 1.76414 9.93846 1.54028 10.2146 1.54028Z" fill="#2E3032"/>
</svg>
