<svg width="14" height="14" viewBox="0 0 14 14" fill="none" xmlns="http://www.w3.org/2000/svg">
<path fill-rule="evenodd" clip-rule="evenodd" d="M3.31921 1.375C3.16676 1.375 3.02055 1.43556 2.91275 1.54336C2.80495 1.65116 2.74438 1.79737 2.74438 1.94983V6.90106C2.74438 7.1772 2.52053 7.40106 2.24438 7.40106C1.96824 7.40106 1.74438 7.1772 1.74438 6.90106V1.94983C1.74438 1.53216 1.9103 1.13159 2.20564 0.836257C2.50098 0.540919 2.90154 0.375 3.31921 0.375H6.00629C6.17346 0.375 6.32958 0.458551 6.42231 0.59765L7.34871 1.98724H11.9178C12.3355 1.98724 12.7361 2.15316 13.0314 2.4485C13.3268 2.74384 13.4927 3.1444 13.4927 3.56207V9.04846C13.4927 10.153 12.5972 11.0485 11.4927 11.0485H7.87533C7.59919 11.0485 7.37533 10.8246 7.37533 10.5485C7.37533 10.2723 7.59919 10.0485 7.87533 10.0485H11.4927C12.045 10.0485 12.4927 9.60075 12.4927 9.04846V3.56207C12.4927 3.40962 12.4321 3.26341 12.3243 3.15561C12.2165 3.04781 12.0703 2.98724 11.9178 2.98724H7.08112C6.91394 2.98724 6.75782 2.90369 6.66509 2.76459L5.73869 1.375H3.31921Z" fill="#2E3032"/>
<path fill-rule="evenodd" clip-rule="evenodd" d="M4.53516 12.6221C2.8632 12.6221 1.50781 11.2668 1.50781 9.5948C1.50781 7.92285 2.8632 6.56746 4.53516 6.56746C6.20711 6.56746 7.5625 7.92285 7.5625 9.5948C7.5625 11.2668 6.20711 12.6221 4.53516 12.6221ZM4.53516 13.6221C2.31092 13.6221 0.507812 11.819 0.507812 9.5948C0.507812 7.37056 2.31092 5.56746 4.53516 5.56746C6.7594 5.56746 8.5625 7.37056 8.5625 9.5948C8.5625 11.819 6.7594 13.6221 4.53516 13.6221Z" fill="#2E3032"/>
<path fill-rule="evenodd" clip-rule="evenodd" d="M5.03516 11.3382C5.03516 11.6144 4.8113 11.8382 4.53516 11.8382C4.25901 11.8382 4.03516 11.6144 4.03516 11.3382V10.0948H5.03516V11.3382ZM5.03516 9.0948L5.03516 10.0948H6.27856C6.55471 10.0948 6.77856 9.87095 6.77856 9.5948C6.77856 9.31866 6.55471 9.0948 6.27856 9.0948H5.03516ZM4.03516 9.0948L4.03516 10.0948H2.79175C2.51561 10.0948 2.29175 9.87095 2.29175 9.5948C2.29175 9.31866 2.51561 9.0948 2.79175 9.0948H4.03516ZM4.03516 9.0948H5.03516V7.8514C5.03516 7.57525 4.8113 7.3514 4.53516 7.3514C4.25901 7.3514 4.03516 7.57525 4.03516 7.8514V9.0948Z" fill="#2E3032"/>
<path d="M4.03516 10.0948H5.03516L5.03516 9.0948H4.03516L4.03516 10.0948Z" fill="#2E3032"/>
</svg>
