<svg width="12" height="14" viewBox="0 0 12 14" fill="none" xmlns="http://www.w3.org/2000/svg">
<path fill-rule="evenodd" clip-rule="evenodd" d="M6.42586 3.59236C6.1112 3.27769 5.60103 3.27769 5.28637 3.59236C4.97171 3.90702 4.97171 4.41719 5.28637 4.73185C5.60103 5.04652 6.1112 5.04652 6.42586 4.73185C6.74053 4.41719 6.74053 3.90702 6.42586 3.59236ZM4.70362 3.00961C5.34013 2.3731 6.37211 2.3731 7.00862 3.00961C7.64512 3.64611 7.64512 4.6781 7.00862 5.3146C6.37211 5.95111 5.34013 5.95111 4.70362 5.3146C4.06711 4.6781 4.06711 3.64611 4.70362 3.00961Z" fill="#2E3032"/>
<path fill-rule="evenodd" clip-rule="evenodd" d="M4.1478 7.42419C3.69009 7.66105 3.51696 7.93314 3.51696 8.16806V8.38121C3.69297 8.42811 3.82264 8.58862 3.82264 8.77941C3.82264 9.00699 3.63815 9.19147 3.41057 9.19147C3.01426 9.19147 2.69283 8.87004 2.69283 8.47373V8.16806C2.69283 7.478 3.19921 6.98712 3.76904 6.69225C4.35239 6.39038 5.10774 6.23006 5.85598 6.23006C6.60425 6.23006 7.3596 6.39047 7.94294 6.69238C8.5127 6.98727 9.01912 7.47813 9.01912 8.16806V8.47373C9.01912 8.87004 8.69769 9.19147 8.30138 9.19147C8.0738 9.19147 7.88931 9.00699 7.88931 8.77941C7.88931 8.58862 8.01898 8.42811 8.19499 8.38121V8.16806C8.19499 7.93332 8.02189 7.66121 7.56413 7.4243C7.11994 7.19441 6.49975 7.05419 5.85598 7.05419C5.21217 7.05419 4.59198 7.19434 4.1478 7.42419Z" fill="#2E3032"/>
<path fill-rule="evenodd" clip-rule="evenodd" d="M5.85592 1.32413C3.07694 1.32413 0.824134 3.57694 0.824134 6.35592C0.824134 8.30817 1.93613 10.0015 3.56215 10.8358C3.54538 10.9483 3.53668 11.0635 3.53668 11.1807C3.53668 11.3829 3.56256 11.5791 3.61119 11.7661C1.49146 10.8856 0 8.79539 0 6.35592C0 3.12178 2.62178 0.5 5.85592 0.5C9.09005 0.5 11.7118 3.12178 11.7118 6.35592C11.7118 8.79538 10.2203 10.8855 8.10085 11.766C8.14946 11.579 8.17533 11.3829 8.17533 11.1807C8.17533 11.0634 8.16663 10.9483 8.14985 10.8357C9.77588 10.0014 10.8877 8.30805 10.8877 6.35592C10.8877 3.57694 8.63489 1.32413 5.85592 1.32413ZM8.14985 10.8357C7.98942 10.918 7.82398 10.992 7.65411 11.057L7.94871 11.8267C7.99977 11.8071 8.05049 11.7869 8.10085 11.766C7.84148 12.7635 6.93475 13.5 5.85601 13.5C4.77729 13.5 3.87058 12.7636 3.61119 11.7661C3.71538 11.8093 3.8211 11.8497 3.92823 11.887L4.19943 11.1088C3.97966 11.0322 3.76683 10.9408 3.56215 10.8358C3.72873 9.71843 4.69228 8.86135 5.85601 8.86135C7.0197 8.86135 7.98323 9.71838 8.14985 10.8357ZM6.21907 10.3521C6.30413 10.4147 6.35226 10.5026 6.36348 10.6157H6.94529C6.94249 10.4446 6.89669 10.2941 6.8079 10.1642C6.71911 10.0343 6.5948 9.93291 6.43498 9.86001C6.27609 9.7871 6.09009 9.75065 5.87699 9.75065C5.66763 9.75065 5.4807 9.7871 5.31621 9.86001C5.15171 9.93291 5.02226 10.0343 4.92786 10.1642C4.8344 10.2941 4.78813 10.446 4.78907 10.6199C4.78813 10.832 4.85776 11.0007 4.99796 11.126C5.13816 11.2512 5.32929 11.3433 5.57136 11.4022L5.884 11.4807C5.98868 11.5059 6.07701 11.534 6.14898 11.5648C6.22188 11.5956 6.27702 11.633 6.31441 11.677C6.35273 11.7209 6.37189 11.7751 6.37189 11.8396C6.37189 11.9088 6.35086 11.97 6.3088 12.0232C6.26674 12.0765 6.20739 12.1181 6.13075 12.148C6.05504 12.1779 5.96579 12.1929 5.86297 12.1929C5.75829 12.1929 5.66436 12.177 5.58118 12.1452C5.49893 12.1125 5.43304 12.0644 5.3835 12.0008C5.3349 11.9363 5.30733 11.8559 5.30078 11.7597H4.71336C4.71803 11.9662 4.76804 12.1396 4.86337 12.2798C4.95964 12.4191 5.09329 12.5242 5.26433 12.5952C5.43631 12.6663 5.63819 12.7018 5.86998 12.7018C6.10365 12.7018 6.30319 12.6667 6.46863 12.5967C6.63499 12.5256 6.7621 12.4261 6.84996 12.298C6.93875 12.1691 6.98362 12.0167 6.98455 11.841C6.98362 11.7214 6.96165 11.6153 6.91866 11.5227C6.8766 11.4302 6.81725 11.3498 6.74061 11.2816C6.66397 11.2134 6.57331 11.1559 6.46863 11.1092C6.36394 11.0624 6.24898 11.025 6.12374 10.997L5.86578 10.9353C5.80316 10.9213 5.74427 10.9045 5.68913 10.8848C5.63399 10.8643 5.58538 10.8404 5.54332 10.8133C5.50127 10.7853 5.46809 10.7521 5.44379 10.7138C5.42042 10.6755 5.40967 10.6306 5.41154 10.5792C5.41154 10.5175 5.4293 10.4624 5.46481 10.4138C5.50127 10.3652 5.55361 10.3273 5.62184 10.3002C5.69006 10.2722 5.77372 10.2582 5.87279 10.2582C6.01859 10.2582 6.13402 10.2895 6.21907 10.3521Z" fill="#2E3032"/>
<path d="M7.65411 11.057L7.94871 11.8267C7.99977 11.8071 8.05049 11.7869 8.10085 11.766C8.14946 11.579 8.17533 11.3829 8.17533 11.1807C8.17533 11.0634 8.16663 10.9483 8.14985 10.8357C7.98942 10.918 7.82398 10.992 7.65411 11.057Z" fill="#2E3032"/>
<path d="M3.92823 11.887L4.19943 11.1088C3.97966 11.0322 3.76683 10.9408 3.56215 10.8358C3.54538 10.9483 3.53668 11.0635 3.53668 11.1807C3.53668 11.3829 3.56256 11.5791 3.61119 11.7661C3.71538 11.8093 3.8211 11.8497 3.92823 11.887Z" fill="#2E3032"/>
</svg>
