<svg width="14" height="16" viewBox="0 0 14 16" fill="none" xmlns="http://www.w3.org/2000/svg">
<path d="M0.507812 10.3711C1.17809 10.3711 2.20376 10.4312 2.54743 10.7652C3.70905 11.894 0.660412 12.2365 0.923708 13.6618C1.10774 14.6579 3.9897 14.5958 3.9897 14.5958H9.39527" stroke="#2E3032" stroke-linecap="round"/>
<path d="M10.7168 14.5977H11.0759" stroke="#2E3032" stroke-linecap="round" stroke-linejoin="round"/>
<path d="M6.1911 8.23277L7.57271 6.08486L9.25397 3.47113C9.85152 2.54215 11.089 2.27348 12.018 2.87103L12.2864 3.04366C12.5186 3.19304 12.5858 3.50242 12.4364 3.73466L9.94366 7.60995L8.56205 9.75785M6.1911 8.23277L4.8839 10.265C4.8352 10.3407 4.80784 10.4282 4.80472 10.5181L4.71383 13.1349L7.05734 11.9671C7.13791 11.9269 7.20615 11.8658 7.25485 11.7901L8.56205 9.75785M6.1911 8.23277L8.56205 9.75785" stroke="#2E3032" stroke-linejoin="round"/>
<path d="M11.2688 1.29001V1.29001C10.1335 1.11671 9.00057 1.61655 8.36324 2.57192L6.40198 5.51185" stroke="#2E3032" stroke-linecap="round"/>
</svg>
