<svg width="14" height="16" viewBox="0 0 14 16" fill="none" xmlns="http://www.w3.org/2000/svg">
<path d="M11.3044 8.48828H6.26375C5.34143 8.48828 4.59375 9.23597 4.59375 10.1583V13.8714C4.59375 14.3698 4.99777 14.7738 5.49615 14.7738H11.3044C12.2268 14.7738 12.9744 14.0261 12.9744 13.1038V10.1583C12.9744 9.23597 12.2268 8.48828 11.3044 8.48828Z" stroke="#2E3032" stroke-linecap="round"/>
<path d="M4.80371 9.58203L8.7844 12.5153L12.7654 9.58203" stroke="#2E3032" stroke-linecap="round" stroke-linejoin="round"/>
<path d="M3.00667 10.5781L3.24805 10.5781" stroke="#2E3032" stroke-linecap="round" stroke-linejoin="round"/>
<path d="M3.00693 8.48569L3.49805 8.48569" stroke="#2E3032" stroke-linecap="round" stroke-linejoin="round"/>
<path d="M3.00602 6.39453L8.16602 6.39453" stroke="#2E3032" stroke-linecap="round" stroke-linejoin="round"/>
<path d="M10.1921 8.55705V4.38607C10.1921 4.25433 10.1401 4.12791 10.0475 4.03429L7.58851 1.55057C7.4946 1.45571 7.36667 1.40234 7.23319 1.40234H5.5863H1.48047C1.20433 1.40234 0.980469 1.6262 0.980469 1.90234V12.0147C0.980469 12.2908 1.20433 12.5147 1.48047 12.5147H4.56627" stroke="#2E3032" stroke-linejoin="round"/>
<path d="M7.38086 1.70312V4.22002H9.59517" stroke="#2E3032" stroke-linecap="round" stroke-linejoin="round"/>
</svg>
