<svg width="14" height="16" viewBox="0 0 14 16" fill="none" xmlns="http://www.w3.org/2000/svg">
<path fill-rule="evenodd" clip-rule="evenodd" d="M3.28662 1.81494C3.28662 1.26266 3.73434 0.814941 4.28662 0.814941H10.0393C10.3063 0.814941 10.5622 0.921679 10.75 1.11139L13.2089 3.59511C13.3943 3.78235 13.4983 4.03519 13.4983 4.29867V11.9273C13.4983 12.4796 13.0506 12.9273 12.4983 12.9273H10.2479V11.9273H12.4983V4.29867L10.0393 1.81494L4.28662 1.81494V3.53847H3.28662V1.81494Z" fill="#2E3032"/>
<path fill-rule="evenodd" clip-rule="evenodd" d="M8.68921 8.19443C8.68921 7.91829 8.46535 7.69443 8.18921 7.69443L3.03013 7.69443C2.75398 7.69443 2.53013 7.91829 2.53013 8.19443C2.53013 8.47058 2.75398 8.69443 3.03013 8.69443L8.18921 8.69443C8.46535 8.69443 8.68921 8.47058 8.68921 8.19443Z" fill="#2E3032"/>
<path fill-rule="evenodd" clip-rule="evenodd" d="M8.68921 10.2878C8.68921 10.0117 8.46535 9.78782 8.18921 9.78782H3.03013C2.75398 9.78782 2.53013 10.0117 2.53013 10.2878C2.53013 10.564 2.75398 10.7878 3.03013 10.7878H8.18921C8.46535 10.7878 8.68921 10.564 8.68921 10.2878Z" fill="#2E3032"/>
<path fill-rule="evenodd" clip-rule="evenodd" d="M5.69556 12.3813C5.69556 12.1051 5.4717 11.8813 5.19556 11.8813H3.03013C2.75398 11.8813 2.53013 12.1051 2.53013 12.3813C2.53013 12.6574 2.75398 12.8813 3.03013 12.8813H5.19556C5.4717 12.8813 5.69556 12.6574 5.69556 12.3813Z" fill="#2E3032"/>
<path fill-rule="evenodd" clip-rule="evenodd" d="M0.503906 4.07227C0.503906 3.51998 0.951621 3.07227 1.50391 3.07227H7.25663C7.52358 3.07227 7.77945 3.179 7.96727 3.36871L10.4262 5.85244C10.6116 6.03968 10.7156 6.29251 10.7156 6.55599V14.1846C10.7156 14.7369 10.2679 15.1846 9.71558 15.1846H1.50391C0.951621 15.1846 0.503906 14.7369 0.503906 14.1846V4.07227ZM1.50391 4.07227V14.1846H9.71558V6.55599L7.25663 4.07227L1.50391 4.07227Z" fill="#2E3032"/>
<path fill-rule="evenodd" clip-rule="evenodd" d="M7.40381 3.71399C7.67995 3.71399 7.90381 3.93785 7.90381 4.21399V5.88916H9.38106C9.6572 5.88916 9.88106 6.11302 9.88106 6.38916C9.88106 6.6653 9.6572 6.88916 9.38106 6.88916H7.40381C7.12767 6.88916 6.90381 6.6653 6.90381 6.38916V4.21399C6.90381 3.93785 7.12767 3.71399 7.40381 3.71399Z" fill="#2E3032"/>
<path fill-rule="evenodd" clip-rule="evenodd" d="M10.2156 1.53882C10.4917 1.53882 10.7156 1.76268 10.7156 2.03882V3.71399H12.1928C12.469 3.71399 12.6928 3.93785 12.6928 4.21399C12.6928 4.49013 12.469 4.71399 12.1928 4.71399H10.2156C9.93943 4.71399 9.71558 4.49013 9.71558 4.21399V2.03882C9.71558 1.76268 9.93943 1.53882 10.2156 1.53882Z" fill="#2E3032"/>
</svg>
